M48
INCH,TZ
T1C0.0315
T2C0.0354
T3C0.0394
T4C0.0433
T5C0.0630
%
G90
G05
T1
X60441Y-29850
X60441Y-32850
X61750Y-26850
X61750Y-27834
X62600Y-41450
X62600Y-44450
T2
X62148Y-30713
X62148Y-38647
X62650Y-33649
X62650Y-34633
X62650Y-35617
X63148Y-30713
X63148Y-38647
T3
X57550Y-26350
X57550Y-28319
X65052Y-26002
X65052Y-27002
X65052Y-43852
X65052Y-44852
X66052Y-26002
X66052Y-27002
X66052Y-43852
X66052Y-44852
T4
X55900Y-34100
X55900Y-36000
X55900Y-37850
X55900Y-39800
X56435Y-31650
X57435Y-31650
X58435Y-31650
X59900Y-34100
X59900Y-36000
X59900Y-37850
X59900Y-39800
T5
X58379Y-42955
X59560Y-44805
X60741Y-42955
T0
M30
