%TF.GenerationSoftware,KiCad,Pcbnew,(6.0.1)*%
%TF.CreationDate,2022-04-22T15:44:47-05:00*%
%TF.ProjectId,BreadboardPowerSupply_v2,42726561-6462-46f6-9172-64506f776572,2*%
%TF.SameCoordinates,Original*%
%TF.FileFunction,Soldermask,Top*%
%TF.FilePolarity,Negative*%
%FSLAX46Y46*%
G04 Gerber Fmt 4.6, Leading zero omitted, Abs format (unit mm)*
G04 Created by KiCad (PCBNEW (6.0.1)) date 2022-04-22 15:44:47*
%MOMM*%
%LPD*%
G01*
G04 APERTURE LIST*
%ADD10R,1.700000X1.700000*%
%ADD11O,1.700000X1.700000*%
%ADD12R,1.600000X1.600000*%
%ADD13C,1.600000*%
%ADD14O,1.600000X1.600000*%
%ADD15R,2.600000X2.600000*%
%ADD16C,2.600000*%
%ADD17R,2.000000X2.000000*%
%ADD18C,2.000000*%
%ADD19R,1.905000X2.000000*%
%ADD20O,1.905000X2.000000*%
%ADD21R,2.200000X2.200000*%
%ADD22O,2.200000X2.200000*%
%ADD23R,1.800000X1.800000*%
%ADD24C,1.800000*%
%ADD25R,1.900000X1.900000*%
%ADD26C,1.900000*%
G04 APERTURE END LIST*
D10*
%TO.C,J2*%
X167772000Y-113924000D03*
D11*
X165232000Y-113924000D03*
X167772000Y-111384000D03*
X165232000Y-111384000D03*
%TD*%
D12*
%TO.C,C2*%
X156845000Y-68199000D03*
D13*
X156845000Y-70699000D03*
%TD*%
%TO.C,R1*%
X159004000Y-112903000D03*
D14*
X159004000Y-105283000D03*
%TD*%
D15*
%TO.C,J1*%
X154282000Y-109105000D03*
D16*
X148282000Y-109105000D03*
X151282000Y-113805000D03*
%TD*%
D17*
%TO.C,C1*%
X146177000Y-66929000D03*
D18*
X146177000Y-71929000D03*
%TD*%
D19*
%TO.C,U1*%
X143346000Y-80391000D03*
D20*
X145886000Y-80391000D03*
X148426000Y-80391000D03*
%TD*%
D21*
%TO.C,D1*%
X141986000Y-101092000D03*
D22*
X152146000Y-101092000D03*
%TD*%
D21*
%TO.C,D2*%
X141986000Y-96139000D03*
D22*
X152146000Y-96139000D03*
%TD*%
D23*
%TO.C,D5*%
X157856000Y-98164000D03*
D24*
X160396000Y-98164000D03*
%TD*%
D21*
%TO.C,D3*%
X141986000Y-91440000D03*
D22*
X152146000Y-91440000D03*
%TD*%
D13*
%TO.C,R2*%
X153521000Y-75819000D03*
D14*
X153521000Y-83439000D03*
%TD*%
D10*
%TO.C,J3*%
X167772000Y-68585000D03*
D11*
X165232000Y-68585000D03*
X167772000Y-66045000D03*
X165232000Y-66045000D03*
%TD*%
D25*
%TO.C,SW1*%
X159131000Y-90468000D03*
D26*
X159131000Y-87968000D03*
X159131000Y-85468000D03*
%TD*%
D21*
%TO.C,D4*%
X141986000Y-86614000D03*
D22*
X152146000Y-86614000D03*
%TD*%
D23*
%TO.C,D6*%
X157856000Y-78012000D03*
D24*
X160396000Y-78012000D03*
%TD*%
M02*
