%TF.GenerationSoftware,KiCad,Pcbnew,(6.0.1)*%
%TF.CreationDate,2022-04-22T15:44:46-05:00*%
%TF.ProjectId,BreadboardPowerSupply_v2,42726561-6462-46f6-9172-64506f776572,2*%
%TF.SameCoordinates,Original*%
%TF.FileFunction,Copper,L1,Top*%
%TF.FilePolarity,Positive*%
%FSLAX46Y46*%
G04 Gerber Fmt 4.6, Leading zero omitted, Abs format (unit mm)*
G04 Created by KiCad (PCBNEW (6.0.1)) date 2022-04-22 15:44:46*
%MOMM*%
%LPD*%
G01*
G04 APERTURE LIST*
%TA.AperFunction,ComponentPad*%
%ADD10R,1.700000X1.700000*%
%TD*%
%TA.AperFunction,ComponentPad*%
%ADD11O,1.700000X1.700000*%
%TD*%
%TA.AperFunction,ComponentPad*%
%ADD12R,1.600000X1.600000*%
%TD*%
%TA.AperFunction,ComponentPad*%
%ADD13C,1.600000*%
%TD*%
%TA.AperFunction,ComponentPad*%
%ADD14O,1.600000X1.600000*%
%TD*%
%TA.AperFunction,ComponentPad*%
%ADD15R,2.600000X2.600000*%
%TD*%
%TA.AperFunction,ComponentPad*%
%ADD16C,2.600000*%
%TD*%
%TA.AperFunction,ComponentPad*%
%ADD17R,2.000000X2.000000*%
%TD*%
%TA.AperFunction,ComponentPad*%
%ADD18C,2.000000*%
%TD*%
%TA.AperFunction,ComponentPad*%
%ADD19R,1.905000X2.000000*%
%TD*%
%TA.AperFunction,ComponentPad*%
%ADD20O,1.905000X2.000000*%
%TD*%
%TA.AperFunction,ComponentPad*%
%ADD21R,2.200000X2.200000*%
%TD*%
%TA.AperFunction,ComponentPad*%
%ADD22O,2.200000X2.200000*%
%TD*%
%TA.AperFunction,ComponentPad*%
%ADD23R,1.800000X1.800000*%
%TD*%
%TA.AperFunction,ComponentPad*%
%ADD24C,1.800000*%
%TD*%
%TA.AperFunction,ComponentPad*%
%ADD25R,1.900000X1.900000*%
%TD*%
%TA.AperFunction,ComponentPad*%
%ADD26C,1.900000*%
%TD*%
%TA.AperFunction,Conductor*%
%ADD27C,0.300000*%
%TD*%
%TA.AperFunction,Conductor*%
%ADD28C,0.250000*%
%TD*%
G04 APERTURE END LIST*
D10*
%TO.P,J2,1,Pin_1*%
%TO.N,/Vout2*%
X167772000Y-113924000D03*
D11*
%TO.P,J2,2,Pin_2*%
X165232000Y-113924000D03*
%TO.P,J2,3,Pin_3*%
%TO.N,/V-*%
X167772000Y-111384000D03*
%TO.P,J2,4,Pin_4*%
X165232000Y-111384000D03*
%TD*%
D12*
%TO.P,C2,1*%
%TO.N,/Vout1*%
X156845000Y-68199000D03*
D13*
%TO.P,C2,2*%
%TO.N,/V-*%
X156845000Y-70699000D03*
%TD*%
%TO.P,R1,1*%
%TO.N,/Vout1*%
X159004000Y-112903000D03*
D14*
%TO.P,R1,2*%
%TO.N,Net-(D5-Pad2)*%
X159004000Y-105283000D03*
%TD*%
D15*
%TO.P,J1,1*%
%TO.N,/V1*%
X154282000Y-109105000D03*
D16*
%TO.P,J1,2*%
%TO.N,/V2*%
X148282000Y-109105000D03*
%TO.P,J1,3*%
%TO.N,unconnected-(J1-Pad3)*%
X151282000Y-113805000D03*
%TD*%
D17*
%TO.P,C1,1*%
%TO.N,/Vin*%
X146177000Y-66929000D03*
D18*
%TO.P,C1,2*%
%TO.N,/V-*%
X146177000Y-71929000D03*
%TD*%
D19*
%TO.P,U1,1,VI*%
%TO.N,/Vin*%
X143346000Y-80391000D03*
D20*
%TO.P,U1,2,GND*%
%TO.N,/V-*%
X145886000Y-80391000D03*
%TO.P,U1,3,VO*%
%TO.N,/Vout1*%
X148426000Y-80391000D03*
%TD*%
D21*
%TO.P,D1,1,K*%
%TO.N,/Vin*%
X141986000Y-101092000D03*
D22*
%TO.P,D1,2,A*%
%TO.N,/V1*%
X152146000Y-101092000D03*
%TD*%
D21*
%TO.P,D2,1,K*%
%TO.N,/V1*%
X141986000Y-96139000D03*
D22*
%TO.P,D2,2,A*%
%TO.N,/V-*%
X152146000Y-96139000D03*
%TD*%
D23*
%TO.P,D5,1,K*%
%TO.N,/V-*%
X157856000Y-98164000D03*
D24*
%TO.P,D5,2,A*%
%TO.N,Net-(D5-Pad2)*%
X160396000Y-98164000D03*
%TD*%
D21*
%TO.P,D3,1,K*%
%TO.N,/Vin*%
X141986000Y-91440000D03*
D22*
%TO.P,D3,2,A*%
%TO.N,/V2*%
X152146000Y-91440000D03*
%TD*%
D13*
%TO.P,R2,1*%
%TO.N,/Vout2*%
X153521000Y-75819000D03*
D14*
%TO.P,R2,2*%
%TO.N,Net-(D6-Pad2)*%
X153521000Y-83439000D03*
%TD*%
D10*
%TO.P,J3,1,Pin_1*%
%TO.N,/Vout2*%
X167772000Y-68585000D03*
D11*
%TO.P,J3,2,Pin_2*%
X165232000Y-68585000D03*
%TO.P,J3,3,Pin_3*%
%TO.N,/V-*%
X167772000Y-66045000D03*
%TO.P,J3,4,Pin_4*%
X165232000Y-66045000D03*
%TD*%
D25*
%TO.P,SW1,1,A*%
%TO.N,/Vout2*%
X159131000Y-90468000D03*
D26*
%TO.P,SW1,2,B*%
%TO.N,/Vout1*%
X159131000Y-87968000D03*
%TO.P,SW1,3,C*%
%TO.N,unconnected-(SW1-Pad3)*%
X159131000Y-85468000D03*
%TD*%
D21*
%TO.P,D4,1,K*%
%TO.N,/V2*%
X141986000Y-86614000D03*
D22*
%TO.P,D4,2,A*%
%TO.N,/V-*%
X152146000Y-86614000D03*
%TD*%
D23*
%TO.P,D6,1,K*%
%TO.N,/V-*%
X157856000Y-78012000D03*
D24*
%TO.P,D6,2,A*%
%TO.N,Net-(D6-Pad2)*%
X160396000Y-78012000D03*
%TD*%
D27*
%TO.N,/Vout2*%
X164592000Y-113919000D02*
X162179000Y-111506000D01*
X153521000Y-75819000D02*
X153521000Y-75587000D01*
X162179000Y-70612000D02*
X162179000Y-69850000D01*
X159976000Y-90468000D02*
X162179000Y-88265000D01*
X162179000Y-111506000D02*
X162179000Y-88265000D01*
X162179000Y-69850000D02*
X163444000Y-68585000D01*
X153521000Y-75587000D02*
X154051000Y-75057000D01*
X165232000Y-113924000D02*
X165227000Y-113919000D01*
X163444000Y-68585000D02*
X165232000Y-68585000D01*
X165227000Y-113919000D02*
X164592000Y-113919000D01*
X157734000Y-75057000D02*
X162179000Y-70612000D01*
X165232000Y-68585000D02*
X167772000Y-68585000D01*
X162179000Y-88265000D02*
X162179000Y-70612000D01*
X159131000Y-90468000D02*
X159976000Y-90468000D01*
X167772000Y-113924000D02*
X165232000Y-113924000D01*
X154051000Y-75057000D02*
X157734000Y-75057000D01*
%TO.N,/Vout1*%
X156591000Y-109728000D02*
X159004000Y-112141000D01*
X157142000Y-87968000D02*
X155702000Y-89408000D01*
X148426000Y-80391000D02*
X148426000Y-80989000D01*
X159004000Y-112141000D02*
X159004000Y-112903000D01*
X155702000Y-101346000D02*
X156591000Y-102235000D01*
X159131000Y-87968000D02*
X157142000Y-87968000D01*
X148426000Y-80391000D02*
X148426000Y-75729000D01*
X155702000Y-89408000D02*
X155702000Y-101346000D01*
X156126000Y-84963000D02*
X159131000Y-87968000D01*
X148426000Y-75729000D02*
X155956000Y-68199000D01*
X156591000Y-102235000D02*
X156591000Y-109728000D01*
X155956000Y-68199000D02*
X156845000Y-68199000D01*
X152400000Y-84963000D02*
X156126000Y-84963000D01*
X148426000Y-80989000D02*
X152400000Y-84963000D01*
D28*
%TO.N,Net-(D5-Pad2)*%
X159004000Y-105283000D02*
X159004000Y-102235000D01*
X160396000Y-100833000D02*
X160396000Y-98164000D01*
X160401000Y-100838000D02*
X160396000Y-100833000D01*
X159004000Y-102235000D02*
X160401000Y-100838000D01*
%TO.N,Net-(D6-Pad2)*%
X160401000Y-78867000D02*
X160401000Y-78017000D01*
X153521000Y-83439000D02*
X157077000Y-79883000D01*
X157077000Y-79883000D02*
X159385000Y-79883000D01*
X159385000Y-79883000D02*
X160401000Y-78867000D01*
X160401000Y-78017000D02*
X160396000Y-78012000D01*
D27*
%TO.N,/Vin*%
X142367000Y-78740000D02*
X142367000Y-69596000D01*
X142367000Y-69596000D02*
X145034000Y-66929000D01*
X140436489Y-94005511D02*
X140436489Y-98526489D01*
X141986000Y-92456000D02*
X140436489Y-94005511D01*
X141986000Y-90424000D02*
X141986000Y-91440000D01*
X145034000Y-66929000D02*
X146177000Y-66929000D01*
X143346000Y-79719000D02*
X142367000Y-78740000D01*
X144907000Y-84264500D02*
X144907000Y-87503000D01*
X143346000Y-80391000D02*
X143346000Y-82703500D01*
X144907000Y-87503000D02*
X141986000Y-90424000D01*
X143346000Y-82703500D02*
X144907000Y-84264500D01*
X140436489Y-98526489D02*
X141986000Y-100076000D01*
X141986000Y-100076000D02*
X141986000Y-101092000D01*
X143346000Y-80391000D02*
X143346000Y-79719000D01*
X141986000Y-91440000D02*
X141986000Y-92456000D01*
%TO.N,/V1*%
X152146000Y-101092000D02*
X154282000Y-103228000D01*
X141986000Y-96139000D02*
X147193000Y-96139000D01*
X154282000Y-103228000D02*
X154282000Y-109105000D01*
X147193000Y-96139000D02*
X152146000Y-101092000D01*
%TD*%
M02*
